<svg width="156" height="35" viewBox="0 0 156 35" fill="none" xmlns="http://www.w3.org/2000/svg">
<path d="M34.3153 8.17773H38.4346V23.9879H45.2228V27.7011H34.3153V8.17773Z" fill="#19191B"/>
<path d="M52.8602 28.0492C51.7192 28.0492 50.6845 27.8655 49.7562 27.498C48.8472 27.1112 48.064 26.589 47.4064 25.9315C46.7682 25.2546 46.2751 24.4617 45.927 23.5527C45.5788 22.6438 45.4048 21.6478 45.4048 20.5648C45.4048 19.4817 45.5788 18.4761 45.927 17.5478C46.2751 16.6195 46.7586 15.8169 47.3774 15.14C48.0156 14.4631 48.7795 13.9313 49.6692 13.5445C50.5781 13.1577 51.5838 12.9643 52.6861 12.9643C53.8465 12.9643 54.8909 13.177 55.8192 13.6025C56.7668 14.028 57.5501 14.6275 58.1689 15.4011C58.8071 16.1747 59.2713 17.0933 59.5614 18.157C59.8708 19.2013 59.9675 20.352 59.8515 21.6091H49.4081C49.5628 22.5954 49.9303 23.3787 50.5104 23.9589C51.11 24.5197 51.8932 24.8001 52.8602 24.8001C53.5371 24.8001 54.0689 24.6841 54.4557 24.452C54.8619 24.2006 55.181 23.8525 55.413 23.4077H59.4163C58.9715 24.8388 58.1883 25.9702 57.0666 26.8018C55.9642 27.6334 54.5621 28.0492 52.8602 28.0492ZM52.6861 16.2133C51.8545 16.2133 51.168 16.4551 50.6265 16.9386C50.085 17.4027 49.7078 18.0506 49.4951 18.8822H55.8772C55.7418 18.0699 55.3937 17.4221 54.8328 16.9386C54.272 16.4551 53.5564 16.2133 52.6861 16.2133Z" fill="#19191B"/>
<path d="M65.3653 28.0492C63.8181 28.0492 62.619 27.6721 61.7681 26.9178C60.9365 26.1636 60.5207 25.0999 60.5207 23.7268C60.5207 22.2956 60.9752 21.203 61.8841 20.4487C62.8124 19.6945 64.1469 19.3174 65.8874 19.3174H69.3395V18.6211C69.3395 16.9192 68.5563 16.0683 66.9898 16.0683C66.4289 16.0683 65.9551 16.1843 65.5683 16.4164C65.1815 16.6485 64.9398 16.9676 64.8431 17.3737H61.1299C61.1879 16.6968 61.362 16.0876 61.652 15.5461C61.9615 15.0046 62.3773 14.5405 62.8995 14.1537C63.4216 13.7669 64.0308 13.4768 64.727 13.2834C65.4426 13.0707 66.2355 12.9643 67.1058 12.9643C69.0785 12.9643 70.5869 13.4671 71.6313 14.4728C72.695 15.4591 73.2268 16.8902 73.2268 18.7662V27.7011H69.5716V26.2506C68.5853 27.4497 67.1832 28.0492 65.3653 28.0492ZM66.4676 25.2643C67.3379 25.2643 68.0341 25.0032 68.5563 24.481C69.0785 23.9589 69.3395 23.2626 69.3395 22.3923V21.8992H66.6417C65.1912 21.8992 64.466 22.46 64.466 23.5817C64.466 24.7034 65.1332 25.2643 66.4676 25.2643Z" fill="#19191B"/>
<path d="M75.4256 13.3124H79.1388V15.4591C79.5643 14.6662 80.1348 14.057 80.8503 13.6315C81.5659 13.1867 82.4168 12.9643 83.4032 12.9643C84.3701 12.9643 85.2501 13.148 86.043 13.5155C86.8359 13.8636 87.5128 14.3664 88.0737 15.024C88.6539 15.6815 89.0987 16.4744 89.4081 17.4027C89.7175 18.331 89.8723 19.3657 89.8723 20.5067C89.8723 21.6478 89.7175 22.6824 89.4081 23.6107C89.0987 24.539 88.6635 25.332 88.1027 25.9895C87.5418 26.6471 86.8746 27.1596 86.101 27.527C85.3275 27.8751 84.4668 28.0492 83.5192 28.0492C81.798 28.0492 80.4442 27.469 79.4579 26.3086V32.4296H75.4256V13.3124ZM82.5619 24.481C83.5676 24.481 84.3605 24.1426 84.9407 23.4657C85.5402 22.7695 85.84 21.7831 85.84 20.5067C85.84 19.2303 85.5499 18.2537 84.9697 17.5768C84.3895 16.8806 83.5869 16.5324 82.5619 16.5324C81.5756 16.5324 80.7923 16.8806 80.2121 17.5768C79.6319 18.2537 79.3419 19.2303 79.3419 20.5067C79.3419 21.8025 79.6319 22.7888 80.2121 23.4657C80.7923 24.1426 81.5756 24.481 82.5619 24.481Z" fill="#19191B"/>
<path d="M96.4653 28.0492C94.6087 28.0492 93.1389 27.6237 92.0559 26.7728C90.9922 25.9218 90.412 24.8001 90.3153 23.4077H94.2025C94.2606 23.8525 94.483 24.2199 94.8698 24.51C95.2566 24.7808 95.7981 24.9162 96.4943 24.9162C97.732 24.9162 98.3509 24.5004 98.3509 23.6688C98.3509 23.34 98.2542 23.0886 98.0608 22.9145C97.8674 22.7405 97.5096 22.5857 96.9875 22.4504L94.6377 21.8122C93.4193 21.4834 92.4813 20.9419 91.8238 20.1876C91.1662 19.4334 90.8375 18.5148 90.8375 17.4317C90.8375 16.7549 90.9632 16.1457 91.2146 15.6041C91.4853 15.0433 91.8528 14.5695 92.3169 14.1827C92.8004 13.7959 93.3806 13.4961 94.0575 13.2834C94.7344 13.0707 95.479 12.9643 96.2912 12.9643C97.9158 12.9643 99.2212 13.3608 100.207 14.1537C101.213 14.9466 101.774 15.9813 101.89 17.2577H98.1188C98.0608 16.9289 97.8674 16.6582 97.5386 16.4454C97.2099 16.2133 96.7844 16.0973 96.2622 16.0973C95.7594 16.0973 95.3629 16.2037 95.0728 16.4164C94.7827 16.6291 94.6377 16.9289 94.6377 17.3157C94.6377 17.8959 95.0438 18.2827 95.8561 18.4761L98.3219 19.1433C99.5983 19.4721 100.565 20.0136 101.223 20.7678C101.88 21.5027 102.209 22.4214 102.209 23.5237C102.209 24.9355 101.697 26.0475 100.672 26.8598C99.666 27.6527 98.2639 28.0492 96.4653 28.0492Z" fill="#19191B"/>
<path d="M109.882 28.0492C108.819 28.0492 107.832 27.8655 106.923 27.498C106.034 27.1306 105.26 26.6181 104.603 25.9605C103.964 25.2836 103.462 24.481 103.094 23.5527C102.727 22.6244 102.543 21.6091 102.543 20.5067C102.543 19.4044 102.727 18.3987 103.094 17.4898C103.462 16.5615 103.964 15.7685 104.603 15.111C105.26 14.4341 106.034 13.9119 106.923 13.5445C107.832 13.1577 108.819 12.9643 109.882 12.9643C110.946 12.9643 111.923 13.1577 112.812 13.5445C113.702 13.9119 114.466 14.4341 115.104 15.111C115.762 15.7685 116.274 16.5615 116.641 17.4898C117.009 18.3987 117.193 19.4044 117.193 20.5067C117.193 21.6091 117.009 22.6244 116.641 23.5527C116.274 24.481 115.762 25.2836 115.104 25.9605C114.466 26.6181 113.702 27.1306 112.812 27.498C111.923 27.8655 110.946 28.0492 109.882 28.0492ZM109.882 24.51C110.888 24.51 111.681 24.1523 112.261 23.4367C112.861 22.7211 113.16 21.7445 113.16 20.5067C113.16 19.2883 112.861 18.3214 112.261 17.6058C111.681 16.8902 110.888 16.5324 109.882 16.5324C108.877 16.5324 108.074 16.8902 107.475 17.6058C106.875 18.3214 106.575 19.2883 106.575 20.5067C106.575 21.7445 106.875 22.7211 107.475 23.4367C108.074 24.1523 108.877 24.51 109.882 24.51Z" fill="#19191B"/>
<path d="M118.64 13.3124H122.354V15.053C122.76 14.3761 123.282 13.8636 123.92 13.5155C124.558 13.148 125.313 12.9643 126.183 12.9643C127.072 12.9643 127.856 13.1577 128.533 13.5445C129.229 13.9313 129.799 14.4728 130.244 15.169C130.747 14.4728 131.356 13.9313 132.072 13.5445C132.807 13.1577 133.648 12.9643 134.596 12.9643C136.239 12.9643 137.526 13.4768 138.454 14.5018C139.401 15.5268 139.875 16.9579 139.875 18.7952V27.7011H135.843V19.3464C135.843 18.4954 135.64 17.8379 135.234 17.3737C134.847 16.8902 134.315 16.6485 133.638 16.6485C132.961 16.6485 132.401 16.8902 131.956 17.3737C131.511 17.8572 131.288 18.4761 131.288 19.2303V27.7011H127.256V19.3464C127.256 18.4954 127.053 17.8379 126.647 17.3737C126.26 16.8902 125.728 16.6485 125.051 16.6485C124.336 16.6485 123.756 16.8999 123.311 17.4027C122.885 17.8862 122.673 18.5341 122.673 19.3464V27.7011H118.64V13.3124Z" fill="#19191B"/>
<path d="M148.61 28.0492C147.469 28.0492 146.435 27.8655 145.506 27.498C144.597 27.1112 143.814 26.589 143.156 25.9315C142.518 25.2546 142.025 24.4617 141.677 23.5527C141.329 22.6438 141.155 21.6478 141.155 20.5648C141.155 19.4817 141.329 18.4761 141.677 17.5478C142.025 16.6195 142.509 15.8169 143.127 15.14C143.766 14.4631 144.53 13.9313 145.419 13.5445C146.328 13.1577 147.334 12.9643 148.436 12.9643C149.597 12.9643 150.641 13.177 151.569 13.6025C152.517 14.028 153.3 14.6275 153.919 15.4011C154.557 16.1747 155.021 17.0933 155.311 18.157C155.621 19.2013 155.718 20.352 155.601 21.6091H145.158C145.313 22.5954 145.68 23.3787 146.26 23.9589C146.86 24.5197 147.643 24.8001 148.61 24.8001C149.287 24.8001 149.819 24.6841 150.206 24.452C150.612 24.2006 150.931 23.8525 151.163 23.4077H155.166C154.722 24.8388 153.938 25.9702 152.817 26.8018C151.714 27.6334 150.312 28.0492 148.61 28.0492ZM148.436 16.2133C147.605 16.2133 146.918 16.4551 146.376 16.9386C145.835 17.4027 145.458 18.0506 145.245 18.8822H151.627C151.492 18.0699 151.144 17.4221 150.583 16.9386C150.022 16.4551 149.306 16.2133 148.436 16.2133Z" fill="#19191B"/>
<path d="M16.5918 8.28906L13.4235 17.4886L23.0407 20.7408L16.5918 8.28906Z" fill="#5454D4" fill-opacity="0.7"/>
<path d="M12.3448 19.2852L2.46118 34.8536L12.7093 26.3617L12.3448 19.2852Z" fill="#5454D4" fill-opacity="0.3"/>
<path d="M13.5458 25.862L22.0835 21.6462L13.1672 18.665L13.5458 25.862Z" fill="#5454D4"/>
<path d="M21.1094 14.8046L23.6749 19.7582L24.9927 13.3291L21.1094 14.8046Z" fill="#5454D4"/>
<path d="M12.5178 16.9077L15.6021 7.90392L0.194824 0.134766L12.5178 16.9077Z" fill="#5454D4"/>
</svg>
